<svg xmlns="http://www.w3.org/2000/svg" xmlns:xlink="http://www.w3.org/1999/xlink" viewBox="0 0 507.33 304.4"><defs><style>.cls-1{fill:url(#Namnlös_övertoning_37);}.cls-2{fill:url(#Namnlös_övertoning_37-2);}.cls-3{fill:url(#Namnlös_övertoning_37-3);}.cls-4{fill:url(#Namnlös_övertoning_37-4);}.cls-5{fill:url(#Namnlös_övertoning_37-5);}.cls-6{fill:url(#Namnlös_övertoning_37-6);}.cls-7{fill:url(#Namnlös_övertoning_37-7);}.cls-8{fill:url(#Namnlös_övertoning_37-8);}.cls-9{fill:url(#Namnlös_övertoning_37-9);}.cls-10{fill:url(#Namnlös_övertoning_37-10);}.cls-11{fill:url(#Namnlös_övertoning_37-11);}.cls-12{fill:url(#Namnlös_övertoning_37-12);}.cls-13{fill:url(#Namnlös_övertoning_37-13);}.cls-14{fill:url(#Namnlös_övertoning_37-14);}.cls-15{fill:url(#Namnlös_övertoning_37-15);}.cls-16{fill:url(#Namnlös_övertoning_37-16);}.cls-17{fill:url(#Namnlös_övertoning_37-17);}.cls-18{fill:url(#Namnlös_övertoning_37-18);}.cls-19{fill:url(#Namnlös_övertoning_37-19);}.cls-20{fill:url(#Namnlös_övertoning_37-20);}.cls-21{fill:url(#Namnlös_övertoning_37-21);}</style><linearGradient id="Namnlös_övertoning_37" x1="110.59" y1="280.13" x2="180.03" y2="210.69" gradientUnits="userSpaceOnUse"><stop offset="0" stop-color="#82c4c3"/><stop offset="0.44" stop-color="#82bfc4"/><stop offset="0.95" stop-color="#84b1c8"/><stop offset="1" stop-color="#84afc9"/></linearGradient><linearGradient id="Namnlös_övertoning_37-2" x1="70.43" y1="275.97" x2="133.8" y2="212.6" xlink:href="#Namnlös_övertoning_37"/><linearGradient id="Namnlös_övertoning_37-3" x1="128.61" y1="207.31" x2="271.25" y2="64.68" xlink:href="#Namnlös_övertoning_37"/><linearGradient id="Namnlös_övertoning_37-4" x1="106.03" y1="222.72" x2="258.66" y2="70.09" xlink:href="#Namnlös_övertoning_37"/><linearGradient id="Namnlös_övertoning_37-5" x1="118.52" y1="73.09" x2="172.09" y2="19.52" xlink:href="#Namnlös_övertoning_37"/><linearGradient id="Namnlös_övertoning_37-6" x1="419.79" y1="227.16" x2="569.71" y2="77.24" xlink:href="#Namnlös_övertoning_37"/><linearGradient id="Namnlös_övertoning_37-7" x1="-19.89" y1="230.51" x2="136.74" y2="73.89" xlink:href="#Namnlös_övertoning_37"/><linearGradient id="Namnlös_övertoning_37-8" x1="-46.96" y1="230.59" x2="109.81" y2="73.81" xlink:href="#Namnlös_övertoning_37"/><linearGradient id="Namnlös_övertoning_37-9" x1="75.6" y1="73.94" x2="128.63" y2="20.92" xlink:href="#Namnlös_övertoning_37"/><linearGradient id="Namnlös_övertoning_37-10" x1="156.58" y1="177.4" x2="279.28" y2="54.71" xlink:href="#Namnlös_övertoning_37"/><linearGradient id="Namnlös_övertoning_37-11" x1="343.88" y1="279.99" x2="410.12" y2="213.75" xlink:href="#Namnlös_övertoning_37"/><linearGradient id="Namnlös_övertoning_37-12" x1="370.9" y1="235.01" x2="536.53" y2="69.39" xlink:href="#Namnlös_övertoning_37"/><linearGradient id="Namnlös_övertoning_37-13" x1="402.13" y1="230.53" x2="558.8" y2="73.87" xlink:href="#Namnlös_övertoning_37"/><linearGradient id="Namnlös_övertoning_37-14" x1="238.79" y1="208.49" x2="380.78" y2="66.5" xlink:href="#Namnlös_övertoning_37"/><linearGradient id="Namnlös_övertoning_37-15" x1="206.14" y1="157.73" x2="316.65" y2="47.22" xlink:href="#Namnlös_övertoning_37"/><linearGradient id="Namnlös_övertoning_37-16" x1="379.35" y1="75.14" x2="433.82" y2="20.67" xlink:href="#Namnlös_övertoning_37"/><linearGradient id="Namnlös_övertoning_37-17" x1="-60.72" y1="228.81" x2="92.5" y2="75.59" xlink:href="#Namnlös_övertoning_37"/><linearGradient id="Namnlös_övertoning_37-18" x1="301.35" y1="92.79" x2="372.22" y2="21.93" xlink:href="#Namnlös_övertoning_37"/><linearGradient id="Namnlös_övertoning_37-19" x1="349.93" y1="71.92" x2="404.07" y2="17.78" xlink:href="#Namnlös_övertoning_37"/><linearGradient id="Namnlös_övertoning_37-20" x1="302.13" y1="268.89" x2="374" y2="197.02" xlink:href="#Namnlös_övertoning_37"/><linearGradient id="Namnlös_övertoning_37-21" x1="370.57" y1="279.82" x2="442.59" y2="207.8" xlink:href="#Namnlös_övertoning_37"/></defs><title>MRretailResurs 1</title><g id="Lager_2" data-name="Lager 2"><g id="Lager_1-2" data-name="Lager 1"><path class="cls-1" d="M152.57,304.4V183.23a50.24,50.24,0,0,1-17.71,6.38V304.4h17.71Z"/><path class="cls-2" d="M107.71,186.51a50.8,50.8,0,0,1-8.85-4.67V304.4h8.85Z"/><path class="cls-3" d="M206.57,256.85V0h-8.86V276.42c.32-.64.63-1.28.93-1.94Z"/><path class="cls-4" d="M188.57,289.21V0h-8.86V296.4A50.51,50.51,0,0,0,188.57,289.21Z"/><path class="cls-5" d="M134.86,89.42a50.24,50.24,0,0,1,17.71,6.38V0H134.86Z"/><path class="cls-6" d="M494,3V301.37A25.36,25.36,0,0,0,507.33,279V25.37A25.36,25.36,0,0,0,494,3Z"/><rect class="cls-7" x="54" width="8.86" height="304.4"/><rect class="cls-8" x="26.86" width="9.14" height="304.4"/><path class="cls-9" d="M98.86,97.2a50.17,50.17,0,0,1,8.85-4.68V0H98.86Z"/><path class="cls-10" d="M224.57,218.71V0h-8.86V236.54l4.92-10.92A41.27,41.27,0,0,1,224.57,218.71Z"/><path class="cls-11" d="M386.29,304.4V189.91a50.35,50.35,0,0,1-18-1.15V304.4Z"/><rect class="cls-12" x="440.29" width="26.86" height="304.4"/><path class="cls-13" d="M485.14,304.19V.21A23.77,23.77,0,0,0,482,0h-6V304.4h6A23.77,23.77,0,0,0,485.14,304.19Z"/><path class="cls-14" d="M296.29,246.91l12.41,27.57a50.31,50.31,0,0,0,5.59,9.51V0h-18Z"/><path class="cls-15" d="M251.43,203c.74-.05,1.49-.09,2.24-.09a33.9,33.9,0,0,1,15.76,3.95V0h-18Z"/><path class="cls-16" d="M395.14,90.94a50.45,50.45,0,0,1,18,9.75V0h-18Z"/><path class="cls-17" d="M18,303.31V1.09A25.39,25.39,0,0,0,0,25.37V279A25.39,25.39,0,0,0,18,303.31Z"/><path class="cls-18" d="M332.28,123.73a50.8,50.8,0,0,1,18-25V0h-18Z"/><path class="cls-19" d="M368.29,90.27a51.16,51.16,0,0,1,12.21-1.49,52.64,52.64,0,0,1,5.79.34V0h-18Z"/><path class="cls-20" d="M350.29,180.27a50.82,50.82,0,0,1-18-25V299.05a50.7,50.7,0,0,0,18,5.13Z"/><path class="cls-21" d="M413.14,178.34a50.63,50.63,0,0,1-18,9.76V304.4h18Z"/></g></g></svg>